<?xml version="1.0" encoding="UTF-8"?>
<svg id="_Слой_4" data-name="Слой_4" xmlns="http://www.w3.org/2000/svg" viewBox="0 0 2000 2000">
  <defs>
    <style>
      .cls-1 {
        fill: #e6e6e6;
      }
    </style>
  </defs>
  <path class="cls-1" d="M964.16,437.19c310.34,0,562.82,252.48,562.82,562.82,0,1.25,0,2.49-.02,3.74-.04,4.02,3.21,7.29,7.23,7.29h0c3.97,0,7.2-3.2,7.24-7.18.01-1.28.02-2.56.02-3.85,0-154.2-60.05-299.17-169.08-408.2-109.03-109.03-254-169.08-408.2-169.08-51.68,0-102.3,6.78-150.9,19.86-5.01,1.35-7.08,7.32-3.92,11.43.03.04.06.08.1.12,1.79,2.33,4.8,3.34,7.64,2.57,46.9-12.71,96.21-19.52,147.08-19.52Z"/>
  <path class="cls-1" d="M1165.17,976.5c-41.03,141.16-157.29,261.68-304.52,281.23-5.08,83.86-17.88,198.78-7.76,282.7,5.19,31.4-45.51,31.32-41.41,0,13.72-83.62,24.12-198.03,27.6-282.7-177.34,19.1-265.04-156.29-211.35-309.7,20.34-84.32,142.48-154.14,200.14-64.69,61.77,102.19,42.12,231.63,35.36,345.06,239.2-42.33,351.2-362.1,237.24-563.32-112.95-199.26-413.7-165.57-542.62.87-207.44,245.16-200.11,554.9,47.89,766.66,0,0,56.97,48.43,86.44,44.32,10.74-2.07,22.64,6,24.15,17.25-.39,39.22-34.13,8.01-51.84-.05-140.26-87.79-217.95-190.26-262.36-357.27-53.51-242.01,119.16-530.91,324.78-606.36,310.46-93.98,532.98,138.62,438.24,446ZM841.67,1182.68c.86-18.12.86-36.23.86-54.35l-1.73-53.48c-.86-9.49-.86-18.12-1.73-26.74-.86-9.49-.86-18.12-1.72-26.74-1.73-18.12-4.31-35.37-6.9-52.62-2.59-17.25-6.9-33.64-12.08-50.04-5.18-16.39-12.94-31.06-24.15-43.13-6.04-5.18-12.08-9.49-18.98-12.94-7.76-2.59-15.53-3.45-24.15-3.45-16.39,0-32.78,4.31-47.45,12.94-14.67,8.63-27.6,19.84-37.1,34.51-10.35,14.66-18.12,30.19-24.15,46.58-11.21,33.64-15.53,69.01-12.08,104.38,2.59,35.37,12.94,68.15,31.06,98.35,9.49,14.66,20.7,27.6,33.64,38.82,12.94,11.21,27.61,19.84,44,25.88,15.53,6.04,31.92,10.35,49.17,12.08h14.67c4.31.86,7.76.86,11.21.86,9.49-.86,18.12-.86,26.74-1.73.86-16.39.86-32.78.86-49.17Z"/>
  <path class="cls-1" d="M1607.7,1043.73c0,2.59-.86,4.31-2.59,6.04l-1.73,1.73c-4.31,3.45-9.49,6.9-14.67,10.35-13.8,11.21-65.55,50.96-81.08,58.72-11.21,5.18-22.43,8.63-34.51,10.35-3.56.46-8.31.85-13.91.65-11.96-.42-20.73-3.26-23.18-4.1-6.77-2.3-11.45-4.95-16.39-7.77-6.04-3.45-11.21-6.9-15.53-10.35-8.63-6.9-17.25-13.8-25.02-20.71-.86-.86-.86-1.73-1.73-2.59-4.31-3.45-8.62-6.9-12.94-10.35-4.31-3.45-7.77-6.04-12.08-8.63-4.31-2.59-6.9-3.45-9.49-2.59-2.59,0-5.18.86-7.77,3.45-2.59,2.59-6.04,6.04-8.63,10.35-2.59,4.31-5.18,8.62-7.76,12.94-5.18,9.49-9.49,18.98-13.8,30.19-7.77,20.7-15.53,42.27-21.57,63.84l-10.35,33.64c0,.86,0,2.59-.86,4.31l-4.31,12.94v.86c-1.73,5.18-4.31,11.21-6.9,17.25-.86,1.73-2.59,3.45-4.31,6.04q-.86.86-1.73,1.73c-.86.86-2.59,1.73-4.31,2.59-1.73.86-4.31,1.73-6.9,1.73s-4.31,0-6.9-.86c-2.59-1.72-5.18-3.45-6.04-5.18l-3.45-3.45c-.86-2.59-1.72-4.31-2.59-6.04-2.59-6.04-5.18-12.08-6.04-18.12-2.59-12.08-5.18-24.15-6.9-35.37-6.04-46.58-11.21-93.17-13.8-138.89-3.45-46.59-5.18-93.17-6.04-139.75-.86-45.72,0-92.31,2.59-139.75.86-23.29,3.45-47.45,7.76-70.74,1.73-12.08,4.31-24.15,8.63-37.1,1.73-6.04,5.18-12.94,9.49-19.84,2.59-3.45,6.04-6.9,10.35-11.21,2.59-2.59,5.18-4.31,8.63-5.18,4.31-.86,7.76-1.73,12.08-2.59,6.04,0,10.35,1.72,14.67,6.04,4.31,4.31,6.04,8.63,6.04,14.67,0,5.18-1.73,9.49-5.18,12.94-3.45,4.31-7.76,6.9-12.08,7.76h-.86c-1.73,2.59-3.45,6.9-5.18,11.21-3.45,9.49-6.04,18.98-7.76,30.19-4.31,21.57-6.9,44-9.49,66.43-3.45,45.72-5.18,91.44-5.18,137.16s.86,92.31,3.45,138.03c1.72,45.72,5.18,90.58,10.35,136.3,1.73,8.63,3.45,17.25,4.31,25.88.86-2.59,1.73-5.18,2.59-7.76l10.35-32.78c6.04-22.43,13.8-44.86,21.57-67.29,4.31-11.21,8.63-22.43,14.67-33.64,2.59-5.18,6.04-10.35,9.49-16.39,4.31-5.18,8.63-10.35,14.67-14.67,3.45-2.59,6.9-5.18,11.21-6.04,4.31-1.72,8.62-2.59,13.8-2.59,9.49.86,16.39,3.45,22.43,7.77,9.49,7.76,17.25,15.53,23.29,23.29l3.45,3.45c.86.86,1.73,2.59,2.59,3.45,6.04,7.77,12.94,14.67,19.84,21.57,7.77,7.77,16.39,14.67,25.88,18.98,5.18,2.59,10.35,3.45,15.53,4.31,2.59.86,5.18.86,7.77.86,2.59-.29,5.18-.57,7.76-.86,6.04-.86,11.21-1.73,16.39-3.45,5.18-1.73,10.35-3.45,15.53-6.04,9.49-5.18,18.98-11.21,27.6-18.98,8.63-7.77,53.47-45.78,61.24-53.55,1.73-1.73,3.45-2.59,6.04-3.45,2.59,0,4.31.86,6.9,2.59,1.73,1.73,2.59,3.45,2.59,6.04Z"/>
  <g>
    <path class="cls-1" d="M955.3,1576.8l-21.4.48v-.62s.76-.02.76-.02c1.45-.03,2.69-.58,3.71-1.66,1.02-1.07,1.51-2.66,1.47-4.76l-.97-43.19c-.04-2.05-.57-3.62-1.56-4.73-1-1.1-2.32-1.64-3.98-1.6h-.7s-.01-.65-.01-.65l18.68-.42c2.46-.06,4.73.25,6.82.92,2.09.67,3.86,1.61,5.33,2.83,1.46,1.22,2.6,2.62,3.42,4.2.81,1.58,1.24,3.29,1.28,5.16.08,3.44-.97,6.27-3.15,8.46-2.18,2.2-5.14,3.84-8.87,4.94v.16c1.72.14,3.37.38,4.95.71,1.59.33,3.02.8,4.31,1.42,1.28.62,2.49,1.43,3.63,2.44,1.03.91,1.91,1.91,2.63,3.01.73,1.1,1.28,2.3,1.67,3.6.39,1.3.6,2.64.63,4.01.07,2.98-.65,5.56-2.14,7.74-1.49,2.18-3.2,3.85-5.12,5.01-2.74,1.59-6.54,2.44-11.41,2.55ZM945.21,1546.05l3.73-.08c3.05-.07,5.22-.43,6.5-1.08.82-.43,1.67-1.02,2.55-1.77.88-.74,1.71-1.9,2.49-3.48.78-1.57,1.15-3.46,1.1-5.66-.04-1.71-.35-3.33-.93-4.85-.58-1.53-1.4-2.88-2.46-4.05s-2.31-2.07-3.75-2.71c-1.44-.64-3-.94-4.68-.9-1.48.03-3.16.36-5.07.97l.53,23.61ZM951.12,1547.67l-5.87.13.46,20.62c.03,1.37.19,2.51.48,3.43.29.91,1.05,1.69,2.29,2.34,1.23.65,3.12.94,5.66.89,5.26-.12,8.96-1.95,11.11-5.5,1.47-2.44,2.18-5.16,2.11-8.17-.05-2.18-.48-4.13-1.28-5.88-.8-1.74-1.88-3.19-3.24-4.34-1.36-1.15-3.06-2.04-5.09-2.67-2.04-.63-4.25-.92-6.63-.86Z"/>
    <path class="cls-1" d="M979.73,1519.31l-.07-.66,33.94-3.35.89,8.97-.54.05c-.48-4.79-3.91-6.88-10.3-6.24l-11.87,1.17,2.55,25.86,10.44-1.03c2.06-.2,3.87-.72,5.43-1.55,1.56-.83,2.34-2.46,2.33-4.87l.58-.06,1.28,12.91-.58.06c-.38-1.45-.93-2.53-1.65-3.25-.72-.72-1.41-1.18-2.07-1.38s-1.23-.27-1.72-.22c-.94-.06-1.92-.04-2.92.05l-10.94,1.08,2,20.22c.15,1.52.57,2.81,1.26,3.86.69,1.05,2.09,1.47,4.2,1.26l8.47-.84c2.04-.2,3.68-.66,4.94-1.39,1.25-.72,2.21-1.65,2.87-2.78.65-1.13,1.17-2.47,1.54-4.01l.54-.05-1.09,9.13-33.94,3.35-.06-.62.77-.08c1.21-.12,2.35-.73,3.41-1.82,1.06-1.09,1.48-2.75,1.26-4.97l-4.24-42.92c-.17-1.75-.72-3.23-1.63-4.45-.91-1.21-2.35-1.72-4.31-1.53l-.77.08Z"/>
    <path class="cls-1" d="M1046.81,1509.12l25.76,45.1c1.35,2.33,2.53,3.99,3.52,4.96,1,.97,1.89,1.54,2.67,1.7.78.16,1.74.19,2.88.08l.11.61-18.38,3.4-.11-.61c1.89-.35,3.3-.79,4.26-1.34.95-.54,1.28-1.61.99-3.19-.16-.87-.62-1.98-1.37-3.34-.14-.19-.22-.33-.24-.43l-7.77-14.01-19.48,3.6-1.91,14.66c-.26,2-.29,3.57-.08,4.71.29,1.58.88,2.56,1.77,2.93.89.38,2.06.43,3.51.16l.11.61-13.22,2.44-.11-.61c1.85-.53,3.23-1.52,4.13-2.99.9-1.47,1.53-3.57,1.9-6.3l6.94-51.38,4.13-.76ZM1039.93,1543.5l17.92-3.31-14.1-25.01-.15.03-3.66,28.29Z"/>
    <path class="cls-1" d="M1141.83,1544.72l-11.54,3.32-2.62-9.11-.23-.09c-.53,4.17-2.13,7.56-4.81,10.19-2.68,2.63-5.75,4.44-9.21,5.43-3.91,1.12-7.69,1.2-11.35.23-3.66-.97-6.62-2.61-8.87-4.93-1.6-1.64-2.84-3.48-3.72-5.5-.88-2.02-1.64-4.17-2.29-6.43l-7.86-27.37c-.47-1.64-1.2-2.93-2.18-3.86-.98-.93-2.75-1.14-5.29-.62l-.18-.64,17.29-4.97.18.64c-2.45,1.03-3.86,2.23-4.22,3.6-.36,1.37-.33,2.78.08,4.22l7.73,26.92c1.57,5.48,3.29,9.36,5.17,11.65,2,2.44,4.41,4.11,7.25,4.99,2.84.88,5.78.89,8.82.01,1.27-.36,2.71-1.02,4.33-1.97,1.61-.95,3.03-2.16,4.25-3.65,3.66-4.42,4.51-10.06,2.53-16.94l-8.63-30.06c-.44-1.52-1.17-2.76-2.2-3.73-1.03-.97-2.87-1.2-5.53-.68l-.18-.64,17.59-5.05.18.64c-2.5.85-3.93,2.03-4.28,3.53-.35,1.5-.33,2.91.04,4.23l11.97,41.67c.41,1.44.98,2.51,1.71,3.21.73.7,1.57,1.09,2.53,1.2.96.1,2.09.08,3.4-.05l.17.6Z"/>
    <path class="cls-1" d="M1181.5,1479.39l-.58.23c-1.66-3.35-3.58-5.18-5.74-5.49-2.17-.31-4.53.05-7.1,1.09l-10.55,4.27,18.04,44.54c1.53,3.77,4.24,4.94,8.13,3.5l.23.58-16.89,6.84-.23-.57c1.56-.69,2.71-1.69,3.45-3.01.74-1.32.68-3.02-.16-5.11l-18.04-44.54-10.55,4.27c-2.57,1.04-4.52,2.42-5.84,4.15-1.33,1.73-1.44,4.37-.32,7.95l-.58.23-5.25-12.96.58-.24c.63.45,1.14.75,1.55.93.4.17.88.27,1.42.28.54.02,1.13-.05,1.78-.22.65-.16,1.39-.41,2.23-.76l34.35-13.91c2.28-.92,3.7-2.52,4.27-4.79l.58-.23,5.25,12.96Z"/>
    <path class="cls-1" d="M1227.07,1443.15l.31.59c-1.5.82-2.66,1.88-3.48,3.19-.82,1.31-1.36,2.51-1.64,3.6-.28,1.09-.51,2.37-.71,3.82l-2.47,24.03,10.66,20.29c.95,1.81,2.21,2.88,3.78,3.22,1.56.33,3.13.12,4.69-.64l.29.55-16.06,8.44-.29-.55c1.6-.9,2.65-2.04,3.14-3.43.49-1.38.24-3-.73-4.86l-10.21-19.43-23.05-12.55c-2.47-1.36-4.43-2.1-5.88-2.22-1.45-.12-3.12.29-5,1.22l-.31-.58,17.99-9.45.31.58c-1.8,1.03-2.76,2.05-2.9,3.04s-.04,1.81.3,2.45c.39.73,1.38,1.53,2.97,2.39l18.78,10.1,1.94-19.01c.31-2.86.17-4.85-.42-5.97-.41-.78-.92-1.29-1.53-1.53-.61-.24-1.14-.32-1.6-.25-.46.07-.93.17-1.42.31l-.31-.59,12.86-6.76Z"/>
    <path class="cls-1" d="M1285.61,1416.79l-.51.36c-1.9-2.04-4.3-3.32-7.19-3.82-2.89-.5-5.7.23-8.44,2.18-1.79,1.28-3.08,2.84-3.87,4.67-.79,1.84-1.05,3.75-.77,5.75.28,2,1.09,3.93,2.43,5.81,1.04,1.46,2.19,2.59,3.44,3.39,1.26.81,2.64,1.32,4.14,1.55,1.5.23,3.12.29,4.86.19,1.74-.11,4.03-.32,6.89-.65,4.75-.56,8.74-.59,11.97-.08,3.23.51,6,2.39,8.32,5.64,1.42,1.98,2.27,4.26,2.56,6.83.29,2.58-.17,5.19-1.39,7.85-1.22,2.65-3.36,5.07-6.42,7.25-1.92,1.37-3.76,2.38-5.53,3.02-1.77.64-3.68,1.14-5.72,1.48-.78.24-1.29.45-1.52.61-.44.32-.62.68-.53,1.09.09.41.4,1.23.92,2.45l-.54.38-8.33-11.67.54-.38c3.2,2.87,6.51,4.4,9.96,4.59,3.44.19,6.73-.84,9.87-3.08,2.36-1.69,3.94-3.48,4.73-5.38.79-1.9,1.01-3.68.65-5.34-.36-1.66-.98-3.12-1.89-4.38-1.87-2.61-4.19-4.18-6.96-4.7-2.77-.52-6.4-.48-10.88.11-3.11.37-5.44.61-7,.7-1.56.09-3.27,0-5.14-.29s-3.66-.93-5.36-1.92c-1.7-1-3.23-2.45-4.58-4.34-1.57-2.19-2.48-4.7-2.75-7.53-.27-2.83.23-5.61,1.49-8.34,1.26-2.73,3.24-5.06,5.94-6.99,2.04-1.46,4.39-2.61,7.04-3.45.46-.07.97-.31,1.54-.72.69-.5.83-1.31.4-2.44l.51-.36,7.11,9.96Z"/>
    <path class="cls-1" d="M1331.16,1379.42l-.48.4c-2.63-2.66-5.02-3.8-7.18-3.41-2.15.38-4.29,1.47-6.4,3.27l-8.68,7.37,31.11,36.63c2.63,3.1,5.57,3.36,8.81.77l.4.47-13.89,11.8-.4-.47c1.27-1.15,2.05-2.46,2.33-3.94.28-1.48-.3-3.08-1.76-4.8l-31.11-36.63-8.68,7.37c-2.11,1.79-3.53,3.72-4.25,5.77-.72,2.06,0,4.61,2.19,7.65l-.47.4-9.05-10.66.47-.4c.73.23,1.32.36,1.76.39.44.04.92-.02,1.43-.17.52-.15,1.06-.4,1.62-.76.56-.36,1.19-.83,1.88-1.42l28.25-23.99c1.87-1.59,2.72-3.55,2.55-5.88l.47-.4,9.06,10.66Z"/>
    <path class="cls-1" d="M1408.07,1366.22l-8.29,8.69-6.86-6.54-.25.03c1.65,3.86,1.98,7.61.99,11.23-.98,3.62-2.72,6.74-5.2,9.34-2.81,2.94-6.03,4.92-9.68,5.93-3.65,1.01-7.03,1.09-10.15.23-2.21-.61-4.21-1.56-5.99-2.87-1.78-1.3-3.52-2.77-5.23-4.4l-20.61-19.65c-1.24-1.18-2.51-1.92-3.83-2.23-1.32-.31-2.95.4-4.88,2.14l-.48-.45,12.42-13.02.48.46c-1.6,2.13-2.21,3.87-1.83,5.24s1.11,2.57,2.2,3.6l20.27,19.33c4.12,3.93,7.57,6.42,10.34,7.45,2.96,1.1,5.88,1.32,8.78.64,2.9-.67,5.44-2.15,7.62-4.44.91-.95,1.82-2.25,2.74-3.88.91-1.63,1.52-3.4,1.82-5.29.93-5.66-1.19-10.96-6.37-15.9l-22.63-21.58c-1.14-1.09-2.41-1.79-3.79-2.11-1.38-.31-3.09.42-5.11,2.21l-.48-.46,12.63-13.24.48.46c-1.73,2-2.37,3.74-1.91,5.21.46,1.47,1.18,2.68,2.18,3.63l31.37,29.92c1.09,1.04,2.12,1.67,3.1,1.91.98.23,1.9.15,2.78-.24.88-.4,1.85-.98,2.91-1.76l.45.43Z"/>
    <path class="cls-1" d="M1371.35,1322.2l-.53-.4,13.35-17.52c1.87-2.45,3.8-4.55,5.8-6.3,2-1.75,3.97-3.17,5.92-4.28,1.95-1.1,3.79-1.94,5.54-2.5,1.74-.56,3.36-.92,4.86-1.09,2.54-.34,5.08-.35,7.61-.02,2.53.33,4.97.99,7.31,1.98,2.34.99,4.55,2.27,6.63,3.86,2.08,1.58,3.87,3.34,5.37,5.26,1.5,1.92,2.69,3.96,3.58,6.1.89,2.14,1.5,4.35,1.81,6.63.32,2.27.35,4.67.1,7.18-.25,2.12-.83,4.33-1.74,6.64-.91,2.31-2.59,5.07-5.06,8.31l-15.56,20.43-.49-.38.47-.62c1.08-1.42,1.36-2.89.82-4.41-.54-1.52-1.4-2.73-2.6-3.64l-34.36-26.18c-1.15-.88-2.27-1.42-3.34-1.64-1.07-.21-2.03-.14-2.86.24-.84.37-1.55.95-2.15,1.73l-.47.62ZM1380.26,1313.9l36.06,27.47c1.77,1.35,3.29,2.06,4.56,2.13,1.27.07,2.48-.4,3.64-1.41,1.16-1.01,2.62-2.67,4.37-4.97,2.51-3.3,4.3-6.32,5.38-9.08,1.08-2.76,1.3-6.06.67-9.89-.48-2.84-1.56-5.65-3.24-8.43-1.69-2.78-4.24-5.48-7.66-8.08-2.7-2.06-5.66-3.71-8.89-4.97-3.23-1.25-6.47-1.88-9.72-1.89-3.66-.02-7.2.84-10.61,2.59-3.41,1.75-6.59,4.56-9.55,8.43-1.52,2-3.19,4.7-5,8.1Z"/>
    <path class="cls-1" d="M1418.35,1255.45l.55.36c-.93,1.44-1.31,2.91-1.16,4.43.16,1.52,1.17,2.89,3.04,4.1l36.46,23.6c1.85,1.2,3.54,1.53,5.06,1.01,1.53-.53,2.71-1.44,3.56-2.74l.52.34-9.86,15.23-.52-.34c.9-1.39,1.27-2.86,1.11-4.4-.16-1.54-1.19-2.92-3.08-4.14l-36.46-23.6c-2-1.29-3.7-1.68-5.09-1.14-1.39.53-2.54,1.5-3.44,2.89l-.56-.36,9.86-15.23Z"/>
    <path class="cls-1" d="M1477.21,1208.98c4.72,2.54,8.49,6.07,11.29,10.58,2.81,4.52,4.33,9.45,4.57,14.78.24,5.33-.96,10.45-3.59,15.36-2.65,4.93-6.27,8.8-10.89,11.61-4.61,2.82-9.6,4.31-14.95,4.48-5.35.17-10.44-1.04-15.25-3.63-3.7-1.98-6.8-4.55-9.29-7.7-2.5-3.15-4.28-6.63-5.34-10.45-1.06-3.82-1.39-7.7-.98-11.64.41-3.94,1.56-7.67,3.45-11.18,1.85-3.44,4.26-6.41,7.23-8.9,2.97-2.49,6.33-4.36,10.08-5.59,3.75-1.24,7.65-1.69,11.71-1.36,4.06.33,8.05,1.54,11.97,3.65ZM1474.12,1215.08c-6.71-3.6-12.59-5.23-17.66-4.9-5.06.34-9.07,1.71-12.03,4.13-2.95,2.41-5.17,4.98-6.64,7.72-1.14,2.12-1.98,4.51-2.51,7.17-.53,2.66-.45,5.56.24,8.71.69,3.15,2.34,6.32,4.95,9.51,2.61,3.19,6.37,6.11,11.3,8.76,4.34,2.33,8.43,3.78,12.28,4.37,3.85.58,7.33.41,10.46-.51,3.13-.92,5.79-2.36,8-4.3,2.21-1.94,4.01-4.23,5.42-6.85,1.26-2.35,2.12-4.95,2.58-7.81.46-2.85.28-5.79-.53-8.79-.81-3.01-2.5-6-5.06-8.98-2.56-2.98-6.17-5.72-10.82-8.21Z"/>
  </g>
  <circle class="cls-1" cx="1490.96" cy="1165.15" r="7.68"/>
  <circle class="cls-1" cx="892.18" cy="1546.74" r="7.68"/>
</svg>