<?xml version="1.0" encoding="UTF-8"?>
<svg id="_Слой_1" data-name="Слой_1" xmlns="http://www.w3.org/2000/svg" xmlns:xlink="http://www.w3.org/1999/xlink" viewBox="0 0 2000 2000">
  <defs>
    <style>
      .cls-1 {
        filter: url(#outer-glow-2);
      }

      .cls-2 {
        filter: url(#outer-glow-1);
      }

      .cls-2, .cls-3 {
        fill: #ed1e79;
      }

      .cls-4 {
        fill: #e6e6e6;
      }
    </style>
    <filter id="outer-glow-1" x="493.19" y="383.27" width="704.16" height="894.96" filterUnits="userSpaceOnUse">
      <feOffset dx="0" dy="0"/>
      <feGaussianBlur result="blur" stdDeviation="19.84"/>
      <feFlood flood-color="#ed1e79" flood-opacity=".7"/>
      <feComposite in2="blur" operator="in"/>
      <feComposite in="SourceGraphic"/>
    </filter>
    <filter id="outer-glow-2" x="67.67" y="1278.95" width="969.12" height="401.52" filterUnits="userSpaceOnUse">
      <feOffset dx="0" dy="0"/>
      <feGaussianBlur result="blur-2" stdDeviation="19.84"/>
      <feFlood flood-color="#ed1e79" flood-opacity=".7"/>
      <feComposite in2="blur-2" operator="in"/>
      <feComposite in="SourceGraphic"/>
    </filter>
  </defs>
  <path class="cls-4" d="M973.64,389.75c228.32,0,414.07,185.75,414.07,414.07,0,.92,0,1.83-.02,2.75-.03,2.96,2.36,5.36,5.32,5.36h0c2.92,0,5.3-2.36,5.33-5.28,0-.94.02-1.89.02-2.83,0-113.44-44.18-220.1-124.39-300.31-80.22-80.22-186.87-124.4-300.32-124.4-38.02,0-75.27,4.99-111.02,14.61-3.68.99-5.21,5.38-2.88,8.41.02.03.05.06.07.09,1.32,1.72,3.53,2.46,5.62,1.89,34.51-9.35,70.78-14.36,108.21-14.36Z"/>
  <path class="cls-2" d="M1121.52,786.52c-30.19,103.86-115.72,192.52-224.04,206.9-3.74,61.7-13.15,146.24-5.71,207.99,3.82,23.1-33.49,23.04-30.46,0,10.1-61.52,17.75-145.69,20.31-207.98-130.47,14.05-194.99-114.98-155.49-227.85,14.97-62.04,104.82-113.4,147.24-47.6,45.44,75.18,30.99,170.41,26.02,253.87,175.98-31.15,258.38-266.4,174.54-414.44-83.1-146.6-304.36-121.81-399.21.64-152.62,180.37-147.22,408.24,35.24,564.03,0,0,41.91,35.63,63.59,32.6,7.9-1.52,16.66,4.42,17.77,12.69-.28,28.86-25.11,5.89-38.14-.03-103.19-64.59-160.35-139.97-193.02-262.85-39.37-178.05,87.67-390.59,238.95-446.1,228.41-69.14,392.12,101.98,322.42,328.13ZM883.52,938.21c.63-13.33.63-26.66.63-39.98l-1.27-39.35c-.63-6.98-.63-13.33-1.27-19.67-.63-6.98-.63-13.33-1.27-19.67-1.27-13.33-3.17-26.02-5.08-38.72-1.9-12.69-5.08-24.75-8.88-36.81-3.81-12.06-9.52-22.85-17.77-31.73-4.44-3.81-8.88-6.98-13.96-9.52-5.71-1.9-11.42-2.54-17.77-2.54-12.06,0-24.12,3.17-34.91,9.52-10.79,6.35-20.31,14.6-27.29,25.39-7.61,10.79-13.33,22.21-17.77,34.27-8.25,24.75-11.42,50.77-8.88,76.79,1.9,26.02,9.52,50.14,22.85,72.35,6.98,10.79,15.23,20.31,24.75,28.56,9.52,8.25,20.31,14.6,32.37,19.04,11.42,4.44,23.48,7.62,36.18,8.88h10.79c3.17.64,5.71.64,8.25.64,6.98-.64,13.33-.64,19.67-1.27.64-12.06.64-24.12.64-36.18Z"/>
  <path class="cls-4" d="M1447.09,835.98c0,1.9-.63,3.17-1.9,4.44l-1.27,1.27c-3.17,2.54-6.98,5.08-10.79,7.62-10.15,8.25-48.23,37.49-59.65,43.2-8.25,3.81-16.5,6.35-25.39,7.61-2.62.34-6.12.62-10.23.48-8.8-.31-15.25-2.4-17.06-3.01-4.98-1.69-8.43-3.64-12.06-5.71-4.44-2.54-8.25-5.08-11.42-7.61-6.35-5.08-12.69-10.16-18.41-15.23-.63-.63-.63-1.27-1.27-1.9-3.17-2.54-6.35-5.08-9.52-7.62-3.17-2.54-5.71-4.44-8.89-6.35-3.17-1.9-5.08-2.54-6.98-1.9-1.9,0-3.81.64-5.71,2.54-1.9,1.9-4.44,4.44-6.35,7.62-1.9,3.17-3.81,6.35-5.71,9.52-3.81,6.98-6.98,13.96-10.15,22.21-5.71,15.23-11.42,31.1-15.87,46.97l-7.62,24.75c0,.64,0,1.9-.63,3.17l-3.17,9.52v.63c-1.27,3.81-3.17,8.25-5.08,12.69-.64,1.27-1.9,2.54-3.17,4.44q-.64.63-1.27,1.27c-.63.63-1.9,1.27-3.17,1.9s-3.17,1.27-5.08,1.27-3.17,0-5.08-.64c-1.9-1.27-3.81-2.54-4.44-3.81l-2.54-2.54c-.63-1.9-1.27-3.17-1.9-4.44-1.9-4.44-3.81-8.89-4.44-13.33-1.91-8.88-3.81-17.77-5.08-26.02-4.44-34.27-8.25-68.54-10.15-102.18-2.54-34.27-3.81-68.55-4.44-102.82-.63-33.64,0-67.91,1.91-102.82.63-17.14,2.54-34.91,5.71-52.04,1.27-8.88,3.17-17.77,6.35-27.29,1.27-4.44,3.81-9.52,6.98-14.6,1.91-2.54,4.44-5.08,7.62-8.25,1.9-1.9,3.81-3.17,6.35-3.81,3.17-.64,5.71-1.27,8.88-1.9,4.44,0,7.62,1.27,10.79,4.44,3.17,3.17,4.44,6.35,4.44,10.79,0,3.81-1.27,6.98-3.81,9.52-2.54,3.17-5.71,5.08-8.88,5.71h-.63c-1.27,1.9-2.54,5.08-3.81,8.25-2.54,6.98-4.44,13.96-5.71,22.21-3.17,15.87-5.08,32.37-6.98,48.87-2.54,33.64-3.81,67.28-3.81,100.91s.63,67.91,2.54,101.55c1.27,33.64,3.81,66.64,7.61,100.28,1.27,6.35,2.54,12.69,3.17,19.04.64-1.9,1.27-3.81,1.9-5.71l7.62-24.12c4.44-16.5,10.15-33,15.87-49.51,3.17-8.25,6.35-16.5,10.79-24.75,1.9-3.81,4.44-7.62,6.98-12.06,3.17-3.81,6.35-7.62,10.79-10.79,2.54-1.9,5.08-3.81,8.25-4.44,3.17-1.27,6.35-1.9,10.15-1.9,6.98.64,12.06,2.54,16.5,5.71,6.98,5.71,12.69,11.42,17.14,17.14l2.54,2.54c.64.63,1.27,1.9,1.9,2.54,4.44,5.71,9.52,10.79,14.6,15.87,5.71,5.71,12.06,10.79,19.04,13.96,3.81,1.9,7.62,2.54,11.42,3.17,1.9.63,3.81.63,5.71.63,1.9-.21,3.81-.42,5.71-.63,4.44-.64,8.25-1.27,12.06-2.54,3.81-1.27,7.62-2.54,11.43-4.44,6.98-3.81,13.96-8.25,20.31-13.96,6.35-5.71,39.34-33.68,45.05-39.4,1.27-1.27,2.54-1.9,4.44-2.54,1.9,0,3.17.63,5.08,1.9,1.27,1.27,1.9,2.54,1.9,4.44Z"/>
  <g>
    <path class="cls-4" d="M967.12,1228.17l-15.74.35v-.46s.56-.01.56-.01c1.07-.02,1.98-.43,2.73-1.22.75-.79,1.11-1.96,1.08-3.5l-.71-31.77c-.03-1.51-.42-2.66-1.15-3.48-.73-.81-1.71-1.21-2.93-1.18h-.51s-.01-.47-.01-.47l13.74-.31c1.81-.04,3.48.18,5.02.67,1.54.49,2.84,1.18,3.92,2.09,1.08.9,1.91,1.93,2.51,3.09.6,1.16.91,2.42.94,3.8.06,2.53-.72,4.61-2.32,6.23-1.6,1.62-3.78,2.83-6.52,3.63v.11c1.26.11,2.48.28,3.64.52s2.22.59,3.17,1.04c.94.46,1.83,1.05,2.67,1.8.76.67,1.4,1.41,1.93,2.22.53.81.94,1.69,1.23,2.65.29.96.44,1.94.47,2.95.05,2.19-.47,4.09-1.57,5.7-1.1,1.61-2.35,2.84-3.76,3.69-2.01,1.17-4.81,1.79-8.39,1.87ZM959.7,1205.55l2.74-.06c2.25-.05,3.84-.32,4.78-.79.6-.32,1.23-.75,1.87-1.3.65-.55,1.26-1.4,1.83-2.56.58-1.16.84-2.54.81-4.16-.03-1.26-.26-2.45-.68-3.57-.43-1.12-1.03-2.12-1.81-2.98s-1.7-1.52-2.76-2c-1.06-.47-2.21-.69-3.45-.67-1.09.02-2.33.26-3.73.71l.39,17.37ZM964.04,1206.74l-4.31.1.34,15.17c.02,1.01.14,1.85.36,2.52.22.67.78,1.25,1.68,1.72.91.48,2.29.69,4.16.65,3.87-.09,6.59-1.43,8.17-4.04,1.08-1.8,1.6-3.8,1.55-6.01-.04-1.6-.35-3.04-.94-4.33-.59-1.28-1.39-2.35-2.39-3.19-1-.85-2.25-1.5-3.75-1.96-1.5-.46-3.12-.67-4.87-.63Z"/>
    <path class="cls-4" d="M985.09,1185.88l-.05-.49,24.97-2.47.65,6.6-.4.04c-.35-3.53-2.88-5.06-7.58-4.59l-8.73.86,1.88,19.03,7.68-.76c1.52-.15,2.85-.53,3.99-1.14,1.15-.61,1.72-1.81,1.71-3.59l.43-.04.94,9.5-.43.04c-.28-1.06-.68-1.86-1.21-2.39s-1.04-.87-1.52-1.01-.91-.2-1.27-.16c-.69-.05-1.41-.03-2.15.04l-8.05.8,1.47,14.88c.11,1.12.42,2.06.93,2.84.51.77,1.54,1.08,3.09.93l6.23-.61c1.5-.15,2.71-.49,3.63-1.02.92-.53,1.63-1.21,2.11-2.05.48-.83.86-1.82,1.13-2.95l.4-.04-.8,6.71-24.97,2.47-.05-.46.57-.06c.89-.09,1.73-.53,2.51-1.34.78-.81,1.09-2.02.93-3.65l-3.12-31.57c-.13-1.29-.53-2.38-1.2-3.27-.67-.89-1.73-1.26-3.17-1.12l-.57.06Z"/>
    <path class="cls-4" d="M1034.44,1178.38l18.95,33.18c1,1.72,1.86,2.93,2.59,3.65.73.72,1.39,1.13,1.96,1.25.57.12,1.28.14,2.12.06l.08.45-13.52,2.5-.08-.45c1.39-.26,2.43-.58,3.13-.99.7-.4.94-1.18.73-2.34-.12-.64-.45-1.46-1.01-2.46-.1-.14-.16-.24-.17-.32l-5.71-10.31-14.33,2.65-1.41,10.78c-.19,1.47-.21,2.63-.06,3.47.21,1.16.65,1.88,1.3,2.16.65.28,1.51.32,2.58.12l.08.45-9.72,1.8-.08-.45c1.36-.39,2.37-1.12,3.04-2.2.66-1.08,1.13-2.62,1.4-4.63l5.1-37.8,3.03-.56ZM1029.38,1203.67l13.18-2.44-10.38-18.4-.11.02-2.69,20.81Z"/>
    <path class="cls-4" d="M1104.35,1204.57l-8.49,2.44-1.92-6.7-.17-.07c-.39,3.06-1.57,5.56-3.54,7.5-1.97,1.93-4.23,3.27-6.78,4-2.88.83-5.66.88-8.35.17-2.69-.71-4.87-1.92-6.53-3.63-1.18-1.21-2.09-2.56-2.74-4.05-.65-1.49-1.21-3.07-1.69-4.73l-5.78-20.14c-.35-1.21-.88-2.16-1.6-2.84-.72-.68-2.02-.84-3.89-.46l-.13-.47,12.72-3.65.14.47c-1.8.76-2.84,1.64-3.11,2.65-.27,1.01-.25,2.04.06,3.11l5.69,19.81c1.16,4.03,2.42,6.89,3.8,8.57,1.47,1.8,3.25,3.02,5.34,3.67,2.09.65,4.25.65,6.49.01.93-.27,1.99-.75,3.18-1.45,1.19-.7,2.23-1.59,3.12-2.68,2.69-3.25,3.32-7.4,1.86-12.46l-6.35-22.11c-.32-1.12-.86-2.03-1.62-2.75-.76-.71-2.12-.88-4.07-.5l-.14-.47,12.94-3.72.13.47c-1.84.63-2.89,1.49-3.15,2.6-.26,1.11-.25,2.14.03,3.11l8.8,30.66c.3,1.06.72,1.85,1.26,2.36.53.51,1.15.81,1.86.88.71.07,1.54.06,2.5-.03l.13.44Z"/>
    <path class="cls-4" d="M1133.53,1156.51l-.42.17c-1.22-2.46-2.63-3.81-4.22-4.04-1.59-.23-3.34.04-5.22.81l-7.76,3.14,13.27,32.77c1.12,2.77,3.12,3.63,5.98,2.58l.17.42-12.43,5.03-.17-.42c1.15-.51,2-1.25,2.54-2.22.54-.97.5-2.22-.12-3.76l-13.27-32.77-7.76,3.14c-1.89.77-3.32,1.78-4.3,3.05-.98,1.27-1.06,3.22-.24,5.85l-.42.17-3.86-9.54.42-.17c.46.33.84.55,1.14.68.3.13.65.2,1.04.21.4.02.83-.04,1.31-.16.48-.12,1.02-.3,1.64-.56l25.27-10.23c1.68-.68,2.72-1.85,3.14-3.52l.42-.17,3.86,9.54Z"/>
    <path class="cls-4" d="M1167.06,1129.84l.23.43c-1.11.6-1.96,1.38-2.56,2.35-.6.96-1,1.85-1.2,2.65-.2.81-.38,1.74-.52,2.81l-1.82,17.68,7.85,14.93c.7,1.33,1.63,2.12,2.78,2.37,1.15.25,2.3.09,3.45-.47l.21.41-11.81,6.21-.21-.41c1.18-.66,1.95-1.5,2.31-2.52.36-1.02.18-2.21-.54-3.58l-7.51-14.29-16.96-9.23c-1.82-1-3.26-1.55-4.33-1.63-1.07-.08-2.29.21-3.68.9l-.23-.43,13.23-6.95.23.43c-1.32.76-2.03,1.51-2.13,2.24s-.03,1.33.22,1.8c.28.54,1.01,1.13,2.18,1.76l13.82,7.43,1.43-13.99c.23-2.1.13-3.56-.31-4.39-.3-.57-.68-.95-1.12-1.12-.45-.17-.84-.24-1.18-.19-.34.05-.69.13-1.04.23l-.23-.43,9.46-4.97Z"/>
    <path class="cls-4" d="M1210.13,1110.45l-.37.27c-1.4-1.5-3.16-2.44-5.29-2.81-2.12-.37-4.19.17-6.21,1.61-1.32.94-2.27,2.09-2.85,3.44-.58,1.35-.77,2.76-.56,4.23.21,1.47.8,2.89,1.79,4.27.76,1.07,1.61,1.9,2.53,2.49.93.59,1.94.97,3.05,1.14,1.11.17,2.3.22,3.57.14,1.28-.08,2.97-.24,5.07-.48,3.5-.41,6.43-.43,8.81-.06,2.37.38,4.42,1.76,6.12,4.15,1.04,1.46,1.67,3.13,1.89,5.03.22,1.9-.12,3.82-1.03,5.77-.9,1.95-2.47,3.73-4.72,5.34-1.41,1.01-2.77,1.75-4.07,2.22-1.3.47-2.7.84-4.21,1.09-.58.18-.95.33-1.12.45-.33.23-.46.5-.39.81.07.3.29.91.67,1.8l-.4.28-6.13-8.58.39-.28c2.35,2.12,4.79,3.24,7.33,3.37,2.53.14,4.95-.62,7.26-2.27,1.74-1.24,2.9-2.56,3.48-3.96.58-1.4.74-2.71.48-3.93-.26-1.22-.72-2.29-1.39-3.22-1.37-1.92-3.08-3.07-5.12-3.46-2.04-.38-4.71-.36-8,.08-2.29.27-4,.45-5.15.51-1.14.07-2.41,0-3.78-.21-1.38-.21-2.69-.68-3.94-1.42-1.25-.73-2.37-1.8-3.37-3.2-1.15-1.61-1.83-3.46-2.02-5.54-.2-2.08.17-4.13,1.1-6.14.93-2.01,2.39-3.72,4.37-5.14,1.5-1.07,3.23-1.92,5.18-2.54.34-.05.72-.23,1.13-.53.51-.37.61-.96.3-1.79l.37-.27,5.23,7.33Z"/>
    <path class="cls-4" d="M1243.64,1082.96l-.35.3c-1.93-1.96-3.69-2.79-5.28-2.51-1.58.28-3.15,1.08-4.71,2.4l-6.38,5.42,22.89,26.95c1.94,2.28,4.1,2.47,6.48.57l.3.35-10.22,8.68-.3-.35c.93-.84,1.51-1.81,1.72-2.9.21-1.09-.22-2.27-1.29-3.53l-22.89-26.95-6.38,5.42c-1.55,1.32-2.59,2.74-3.12,4.25-.53,1.51,0,3.39,1.61,5.63l-.35.3-6.66-7.84.35-.3c.54.17.97.26,1.29.29s.67-.02,1.05-.13.78-.3,1.19-.56c.41-.27.87-.61,1.38-1.04l20.78-17.65c1.38-1.17,2-2.61,1.87-4.33l.35-.3,6.66,7.84Z"/>
    <path class="cls-4" d="M1300.22,1073.25l-6.1,6.39-5.05-4.81-.18.02c1.21,2.84,1.46,5.6.73,8.26-.72,2.67-2,4.96-3.83,6.87-2.06,2.17-4.44,3.62-7.12,4.36-2.68.74-5.17.8-7.47.17-1.63-.45-3.1-1.15-4.41-2.11-1.31-.96-2.59-2.04-3.85-3.23l-15.16-14.46c-.91-.87-1.85-1.42-2.82-1.64-.97-.23-2.17.3-3.59,1.57l-.35-.33,9.13-9.58.35.34c-1.18,1.56-1.62,2.85-1.34,3.85s.82,1.89,1.62,2.65l14.91,14.22c3.03,2.89,5.57,4.72,7.61,5.48,2.18.81,4.33.97,6.46.47,2.13-.5,4-1.58,5.6-3.27.67-.7,1.34-1.65,2.01-2.86.67-1.2,1.12-2.5,1.34-3.89.68-4.17-.88-8.07-4.68-11.69l-16.65-15.88c-.84-.8-1.77-1.32-2.79-1.55-1.02-.23-2.27.31-3.76,1.63l-.35-.34,9.29-9.74.35.34c-1.27,1.47-1.74,2.75-1.4,3.83.34,1.08.87,1.97,1.6,2.67l23.08,22.01c.8.76,1.56,1.23,2.28,1.4s1.4.11,2.05-.18c.65-.29,1.36-.72,2.14-1.29l.33.32Z"/>
    <path class="cls-4" d="M1273.21,1040.86l-.39-.29,9.82-12.89c1.37-1.8,2.8-3.35,4.27-4.64,1.47-1.29,2.92-2.34,4.36-3.15,1.43-.81,2.79-1.43,4.07-1.84,1.28-.41,2.48-.68,3.57-.8,1.87-.25,3.73-.26,5.6-.01,1.86.25,3.65.73,5.38,1.46,1.72.73,3.35,1.67,4.88,2.84,1.53,1.17,2.85,2.46,3.95,3.87,1.1,1.42,1.98,2.91,2.63,4.49.65,1.58,1.1,3.2,1.33,4.88.23,1.67.26,3.43.07,5.28-.18,1.56-.61,3.19-1.28,4.88-.67,1.7-1.91,3.73-3.72,6.11l-11.45,15.03-.36-.28.35-.45c.8-1.05,1-2.13.6-3.24-.39-1.12-1.03-2.01-1.91-2.68l-25.28-19.26c-.85-.65-1.67-1.05-2.46-1.21-.79-.16-1.49-.1-2.11.17-.62.27-1.14.7-1.58,1.27l-.35.45ZM1279.77,1034.75l26.53,20.21c1.3.99,2.42,1.52,3.35,1.57.93.05,1.82-.29,2.67-1.03.85-.74,1.92-1.96,3.22-3.66,1.85-2.43,3.17-4.65,3.96-6.68.79-2.03.96-4.46.49-7.28-.35-2.09-1.14-4.16-2.39-6.2-1.24-2.05-3.12-4.03-5.64-5.95-1.99-1.51-4.17-2.73-6.54-3.65-2.37-.92-4.76-1.38-7.15-1.39-2.69-.02-5.3.62-7.81,1.9-2.51,1.29-4.85,3.35-7.02,6.2-1.12,1.47-2.35,3.46-3.68,5.96Z"/>
    <path class="cls-4" d="M1307.79,991.76l.41.26c-.68,1.06-.97,2.14-.85,3.26.12,1.12.86,2.12,2.24,3.01l26.83,17.36c1.36.88,2.6,1.13,3.72.74,1.12-.39,2-1.06,2.62-2.02l.38.25-7.25,11.21-.38-.25c.66-1.02.93-2.1.82-3.23-.12-1.13-.87-2.15-2.27-3.05l-26.83-17.36c-1.47-.95-2.72-1.23-3.75-.84-1.02.39-1.87,1.1-2.53,2.12l-.41-.26,7.25-11.21Z"/>
    <path class="cls-4" d="M1351.09,957.56c3.47,1.87,6.24,4.46,8.31,7.79,2.06,3.33,3.18,6.95,3.36,10.87.18,3.92-.71,7.69-2.64,11.3-1.95,3.63-4.62,6.48-8.01,8.55-3.4,2.07-7.06,3.17-11,3.29-3.94.12-7.68-.77-11.22-2.67-2.72-1.46-5-3.35-6.84-5.67-1.84-2.32-3.15-4.88-3.93-7.69-.78-2.81-1.02-5.66-.72-8.56.3-2.9,1.15-5.64,2.54-8.23,1.36-2.53,3.13-4.72,5.32-6.55,2.18-1.83,4.66-3.2,7.42-4.11,2.76-.91,5.63-1.24,8.62-1,2.98.24,5.92,1.14,8.81,2.69ZM1348.82,962.05c-4.94-2.65-9.27-3.85-12.99-3.6s-6.67,1.26-8.85,3.03c-2.17,1.77-3.8,3.67-4.88,5.68-.84,1.56-1.45,3.32-1.84,5.27-.39,1.95-.33,4.09.18,6.41.51,2.32,1.72,4.65,3.64,7,1.92,2.35,4.69,4.5,8.31,6.44,3.19,1.71,6.2,2.78,9.03,3.21,2.83.43,5.4.3,7.7-.38,2.3-.68,4.26-1.73,5.88-3.17,1.62-1.43,2.95-3.11,3.99-5.04.93-1.73,1.56-3.64,1.9-5.74.34-2.1.21-4.26-.39-6.47-.6-2.21-1.84-4.41-3.72-6.6-1.88-2.19-4.54-4.21-7.96-6.04Z"/>
  </g>
  <circle class="cls-4" cx="1361.21" cy="925.32" r="5.65"/>
  <circle class="cls-4" cx="920.68" cy="1206.06" r="5.65"/>
  <g class="cls-1">
    <path class="cls-3" d="M305.22,1409.51c0,42.66-33.42,70.99-77.36,70.99h-65.89v74.17h-34.7v-216.15h101.55c43.29,0,76.4,28.33,76.4,70.99ZM269.56,1410.15c0-23.56-19.74-39.16-43.29-39.16h-64.3v77.67h64.3c23.56,0,43.29-15.28,43.29-38.52Z"/>
    <path class="cls-3" d="M302.04,1472.54c0-48.07,35.66-87.23,85.95-87.23,23.87,0,43.93,9.23,55.39,20.69v-15.92h34.07v164.58h-34.7l.32-16.87c-10.82,11.14-28.33,21.65-55.07,21.65-50.3,0-85.95-38.84-85.95-86.91ZM445.29,1472.22c0-35.65-24.19-56.34-54.75-56.34s-54.12,25.15-54.12,56.34,23.24,56.67,54.12,56.67,54.75-20.69,54.75-56.67Z"/>
    <path class="cls-3" d="M654.12,1453.44v101.23h-34.38v-97.73c0-26.42-14.33-41.38-36.93-41.38-23.87,0-46.16,15.6-46.16,46.48v92.64h-34.38v-164.58h34.38v20.37s11.14-25.47,51.25-25.47c36.93,0,66.22,23.24,66.22,68.44Z"/>
    <path class="cls-3" d="M717.16,1535.57l-69.08-145.48h35.97l50.94,109.19,50.93-109.19h35.97l-111.1,230.8h-36.61l42.98-85.32Z"/>
    <path class="cls-3" d="M801.84,1472.54c0-48.07,35.66-87.23,85.95-87.23,23.87,0,43.93,9.23,55.39,20.69v-15.92h34.07v164.58h-34.7l.32-16.87c-10.82,11.14-28.33,21.65-55.07,21.65-50.3,0-85.95-38.84-85.95-86.91ZM945.1,1472.22c0-35.65-24.19-56.34-54.75-56.34s-54.12,25.15-54.12,56.34,23.24,56.67,54.12,56.67,54.75-20.69,54.75-56.67Z"/>
  </g>
  <path class="cls-4" d="M1239.56,1338.52v216.15h-34.7v-99h-112.37v99h-34.7v-216.15h34.7v84.68h112.37v-84.68h34.7Z"/>
  <path class="cls-4" d="M1252.61,1472.54c0-48.07,40.11-87.23,90.09-87.23s90.09,39.16,90.09,87.23-40.11,86.91-90.09,86.91-90.09-38.84-90.09-86.91ZM1399.69,1472.54c0-31.2-24.51-56.35-56.98-56.35s-56.98,25.15-56.98,56.35,24.51,56.03,56.98,56.03,56.98-25.15,56.98-56.03Z"/>
  <path class="cls-4" d="M1439.48,1488.14v-98.05h34.38v99s-1.91,40.43,40.43,40.43,40.43-40.43,40.43-40.43v-99h34.38v98.05c0,70.04-54.12,71.63-74.81,71.63s-74.81-1.59-74.81-71.63Z"/>
  <path class="cls-4" d="M1595.78,1543.85v-33.74s21.65,18.78,48.39,18.78c21.96,0,33.11-6.69,33.11-17.51,0-12.1-11.14-19.42-30.56-30.24-21.65-12.1-41.39-22.6-41.39-49.98s24.51-45.84,54.44-45.84c20.06,0,34.7,6.05,42.66,10.82v33.74c-7.32-7-21.96-14.01-38.52-14.01-18.47,0-26.11,6.05-26.11,14.64,0,10.5,8.92,14.01,37.25,30.56,21.96,12.73,34.38,23.56,34.38,48.39s-18.78,49.98-64.94,49.98c-28.01,0-48.71-15.6-48.71-15.6Z"/>
  <path class="cls-4" d="M1708.47,1472.22c0-49.34,37.88-86.91,88.82-86.91,47.75,0,75.44,39.47,75.44,79.27v15.91h-131.47c3.82,25.47,21.64,48.39,58.89,48.39,40.43,0,64.94-17.19,65.26-17.19v30.88s-17.83,16.87-65.9,16.87c-57.94,0-91.05-39.79-91.05-87.23ZM1838.36,1453.76c-1.27-12.74-9.55-40.43-45.52-40.43s-48.07,27.69-49.98,40.43h95.5Z"/>
</svg>